<svg width="19" height="20" viewBox="0 0 19 20" fill="none" xmlns="http://www.w3.org/2000/svg">
<path d="M8.87821 0H10.1034C10.2737 0.0762141 10.5073 0.0741238 10.6883 0.113922C10.9472 0.170873 11.204 0.24435 11.4547 0.333609C13.0357 0.904414 14.4035 2.27158 15.0728 3.87883C15.5831 5.10443 15.5568 6.26078 15.5469 7.56566C15.5432 8.05367 15.5616 8.59703 15.5437 9.07607C16.0764 9.09174 16.5236 9.07721 16.9215 9.5215C17.095 9.71334 17.209 9.95617 17.2484 10.2178C17.2852 10.4639 17.2717 11.0047 17.2718 11.2761L17.2722 13.1499L17.272 16.6948C17.2719 17.3197 17.2712 17.954 17.2681 18.5698C17.2647 19.2261 16.9854 19.665 16.4193 19.9172C16.3702 19.9391 16.2708 19.9701 16.2328 20H2.76493C2.72405 19.9729 2.60513 19.9271 2.55565 19.9055C1.6121 19.4942 1.72614 18.6697 1.72611 17.7657L1.72611 15.9849L1.72663 12.4001C1.72674 11.7784 1.72577 11.1556 1.7286 10.5339C1.73054 10.1089 1.83674 9.75582 2.13516 9.45459C2.51507 9.07106 2.96333 9.07943 3.45349 9.09043C3.4493 9.01641 3.44893 8.93357 3.45071 8.859C3.49034 7.18463 3.26149 5.4285 3.93558 3.8574C4.74156 1.97887 6.35832 0.514154 8.29396 0.117266C8.47025 0.0811207 8.71707 0.0708348 8.87821 0ZM6.0433 9.07771C7.22339 9.11783 8.52157 9.08857 9.71342 9.08842L11.8365 9.08818C12.1791 9.08818 12.6159 9.07535 12.9523 9.09188L12.9514 7.1559C12.9517 6.75238 12.9674 6.33021 12.9258 5.93012C12.7341 4.09154 11.2173 2.71209 9.47992 2.7382C9.42472 2.7391 9.36954 2.74066 9.31438 2.74289C8.23184 2.84389 7.56912 3.1734 6.82313 4.06355C5.74971 5.34441 6.1088 6.99711 6.04634 8.55365C6.03936 8.72785 6.04963 8.90336 6.0433 9.07771Z" fill="#9DA0A7"/>
</svg>
