<svg width="18" height="35" viewBox="0 0 18 35" fill="none" xmlns="http://www.w3.org/2000/svg">
<path d="M7.4706 17.6573C2.86461 16.8724 -0.366714 12.7338 0.0334606 8.13192C0.433635 3.53009 4.33206 -0.00311061 9.00606 2.05503e-06C13.6801 0.00316188 17.5737 3.5415 17.9676 8.1439C18.3615 12.7463 15.1245 16.8806 10.5174 17.6594C9.50903 17.8298 8.4787 17.8291 7.4706 17.6573Z" fill="#1A6E3C"/>
<path d="M8.4516 2.73654C9.25806 2.63773 10.0444 2.97112 9.46933 3.82517C9.32568 4.03853 7.88582 4.15648 7.54735 4.25759C5.90933 4.74708 4.58172 6.11444 4.21777 7.77617C4.12341 8.2069 4.11024 8.99572 3.9056 9.33439L3.88302 9.37099C1.61761 10.7738 2.50792 3.36426 8.4516 2.73654Z" fill="white"/>
<path d="M7.11331 18.4395C8.12141 18.6112 9.15174 18.6119 10.1601 18.4415L10.1594 28.9199L10.1601 31.7169C10.1614 32.3475 10.1885 33.0301 10.1103 33.6433C9.97772 34.6058 8.74488 35.0354 7.92788 34.6299C7.50842 34.4216 7.22212 34.1268 7.16857 33.6553C7.0903 32.9655 7.11087 32.2714 7.11097 31.578L7.1115 28.5482L7.11331 18.4395Z" fill="#1A6E3C"/>
</svg>
