<svg width="24" height="24" viewBox="0 0 24 24" fill="none" xmlns="http://www.w3.org/2000/svg">
<path d="M7.73168 1.39317C7.7701 1.39165 7.80853 1.39058 7.84697 1.38996C9.75324 1.3692 11.7008 1.39047 13.6108 1.39036L15.3702 1.38909C15.6657 1.38882 16.1787 1.37567 16.4611 1.41615C16.6667 1.44718 16.857 1.54271 17.0048 1.68896C17.3746 2.05803 17.2961 2.68936 17.2947 3.19296C18.0965 3.67104 17.9535 4.11502 17.9536 4.94684L17.9537 6.49003L17.9499 11.8807L21.2605 13.0035C21.8155 13.1916 22.3845 13.3675 22.9293 13.5805C23.5024 13.8045 23.5732 14.0599 23.5779 14.6299L23.5788 19.6028L23.5786 21.0359C23.579 21.3001 23.6046 21.6723 23.5577 21.924C23.4099 22.7186 22.5859 22.6093 22.029 22.6088L20.8223 22.6081L16.3008 22.608L1.67908 22.6088C1.14034 22.6069 0.48264 22.5778 0.431921 21.8549C0.394644 21.3236 0.418674 20.751 0.419649 20.2145L0.420381 17.1845L0.419924 11.3187C0.419753 10.3488 0.417088 9.37826 0.418761 8.40806C0.419303 8.09381 0.444024 7.84929 0.683335 7.6132C0.765038 7.53258 0.941256 7.422 1.05409 7.41235C1.61805 7.36411 2.30643 7.37171 2.8752 7.38012C3.91639 7.39552 5.00846 7.35448 6.04109 7.3902L6.04292 5.1641C6.04294 4.83736 6.03795 4.5091 6.04908 4.18203C6.06652 3.66898 6.26548 3.44991 6.68841 3.19749C6.75014 2.7195 6.58704 2.14065 6.9645 1.71424C7.184 1.46626 7.42439 1.41752 7.73168 1.39317ZM14.0786 20.3325C14.0789 20.8167 14.0962 21.4707 14.0718 21.9413C14.6846 21.9473 15.2975 21.9499 15.9103 21.9493C16.2097 21.9494 16.9629 21.9869 17.1937 21.8592C17.2696 21.7733 17.2881 21.6629 17.2892 21.5513C17.2995 20.4916 17.2952 19.4234 17.2952 18.364L17.295 12.1354L17.2962 6.91582C17.2963 6.01842 17.3046 5.10518 17.2864 4.2075C17.2841 4.09343 17.2823 4.00027 17.2162 3.9086C17.0636 3.77712 15.6469 3.819 15.3643 3.81893L12.7009 3.81903C10.846 3.81928 8.86203 3.78296 7.02134 3.83421C6.71684 3.87052 6.7005 4.05478 6.70062 4.33271C6.70114 5.54213 6.70296 6.75155 6.70235 7.96099V15.8084L6.70228 19.6791C6.70226 20.0715 6.66202 21.5945 6.77225 21.8409C6.89318 21.92 7.10724 21.945 7.2522 21.9468C8.14378 21.9577 9.03832 21.9382 9.92965 21.9488C9.91512 21.6693 9.9211 21.3759 9.92227 21.0953C9.9267 20.2317 9.91866 19.3669 9.92677 18.5034C9.92916 18.2505 10.0094 18.0019 10.1826 17.8121C10.5993 17.3554 11.4467 17.5028 12.0117 17.4951C12.9 17.4829 14.0387 17.3098 14.0801 18.5573C14.0968 19.1429 14.0799 19.7453 14.0786 20.3325ZM5.7949 21.9469L6.10233 21.954C6.00879 21.6302 6.04329 20.718 6.0436 20.3297L6.04517 17.915L6.04561 8.05357C4.60753 8.02946 2.92632 8.01535 1.49098 8.05022C1.40878 8.05193 1.18241 8.04375 1.13461 8.10071C1.08251 8.16279 1.0754 8.40256 1.07549 8.48899C1.07645 9.43296 1.07825 10.3781 1.07819 11.322L1.07755 17.3218L1.07747 20.2291C1.07748 20.5336 1.04522 21.6834 1.1365 21.9049C1.34341 21.9728 2.61054 21.9478 2.90569 21.9477L5.7949 21.9469ZM7.58384 2.07119C7.25501 2.24496 7.3692 2.80805 7.36226 3.14046C8.811 3.15169 10.2598 3.15455 11.7086 3.14904L16.4884 3.14672L16.5769 3.14972C16.6464 3.07636 16.6543 2.95275 16.6404 2.85387C16.5962 2.53955 16.7618 2.08198 16.2895 2.06581C15.8364 2.05029 15.3832 2.0554 14.9292 2.05531L12.4283 2.055L9.38897 2.05525C8.8635 2.05535 8.21743 2.03897 7.70044 2.06452C7.66156 2.06639 7.62268 2.06861 7.58384 2.07119ZM17.8979 21.9475L21.249 21.948C21.5838 21.9481 22.5788 21.9688 22.8631 21.9305C22.9573 21.6825 22.9202 20.3453 22.9203 20.0159L22.9204 16.9735L22.92 15.2015C22.9199 14.9808 22.9318 14.4938 22.9066 14.2875C22.6172 14.1458 22.2287 14.0263 21.9173 13.9212L20.5047 13.4449L18.886 12.8943C18.6127 12.8012 18.2394 12.6627 17.9682 12.5918C17.9318 12.7425 17.9544 14.0716 17.9545 14.3057L17.9513 19.3811L17.9542 20.7499C17.9551 21.1448 17.9828 21.568 17.8979 21.9475ZM10.8439 18.1718C10.7549 18.1979 10.6853 18.2209 10.6352 18.3063C10.4854 18.5615 10.6093 21.3522 10.5706 21.9403C11.4631 21.9497 12.3555 21.9525 13.248 21.9488L13.4206 21.9498L13.4262 19.6218C13.4273 19.231 13.4351 18.8189 13.4056 18.4303C13.3771 18.0531 12.6137 18.1613 12.32 18.1621C11.828 18.1625 11.3359 18.1658 10.8439 18.1718Z" fill="black"/>
<path d="M11.0035 4.64469C11.3688 4.62636 12.6836 4.58926 12.9821 4.664C13.0552 4.68231 13.1731 4.72248 13.2099 4.79457C13.3058 4.98254 13.3057 6.76822 13.2224 6.99043C13.1856 7.08859 13.0891 7.12907 13.0019 7.17224C12.6212 7.20777 11.1257 7.21968 10.8132 7.09628C10.8054 7.0779 10.7981 7.05932 10.7912 7.04057C10.7017 6.79604 10.6915 5.14157 10.7861 4.78918C10.8073 4.70992 10.9246 4.67307 11.0035 4.64469ZM11.3866 6.49773C11.7699 6.51006 12.2474 6.4945 12.6054 6.5169C12.6089 6.11277 12.6081 5.70861 12.6029 5.3045C12.3939 5.31339 11.6241 5.32982 11.4308 5.30605C11.3536 5.41703 11.3974 6.28065 11.3866 6.49773Z" fill="black"/>
<path d="M14.3796 4.64522C14.9896 4.62419 15.8336 4.60821 16.438 4.67484C16.7858 4.71318 16.6268 6.67807 16.5991 6.98843C16.5917 7.07154 16.4434 7.13934 16.3748 7.17293C16.3011 7.17909 16.1751 7.1883 16.1026 7.18209C15.5672 7.13608 14.6707 7.28819 14.1887 7.09605C14.0213 6.68763 14.1024 5.29427 14.1573 4.80105C14.1665 4.71865 14.3116 4.66999 14.3796 4.64522ZM14.7625 6.49832C15.1474 6.51082 15.6218 6.49507 15.9816 6.51724C15.9851 6.11322 15.9841 5.70918 15.9786 5.30519C15.7699 5.31466 14.9991 5.32994 14.806 5.30655C14.7299 5.41858 14.7734 6.28118 14.7625 6.49832Z" fill="black"/>
<path d="M7.62782 4.64598C8.01719 4.62606 9.28752 4.58973 9.59648 4.66272C9.67084 4.68027 9.79724 4.72373 9.83463 4.79718C9.92763 4.97992 9.92922 6.77516 9.84644 6.99079C9.80849 7.08965 9.71366 7.12942 9.6254 7.17325C9.54888 7.18019 9.41859 7.18998 9.34302 7.18342C8.8097 7.13709 7.92316 7.28598 7.44065 7.09961C7.42781 7.07111 7.41611 7.04209 7.40559 7.01266C7.33424 6.81475 7.31242 5.10236 7.4114 4.78787C7.43573 4.71058 7.55038 4.67409 7.62782 4.64598ZM8.01051 6.49905C8.38769 6.51037 8.87821 6.49516 9.22968 6.51829C9.23317 6.11418 9.23233 5.71005 9.22715 5.30594C9.01689 5.31419 8.24779 5.33113 8.05523 5.30716C7.97678 5.41736 8.02089 6.28185 8.01051 6.49905Z" fill="black" fill-opacity="0.988235"/>
<path d="M10.9814 7.8299C11.6133 7.79266 12.4234 7.80599 13.0545 7.85624C13.2855 7.87464 13.2744 8.42252 13.2683 8.60763C13.2518 9.112 13.3071 9.65734 13.2275 10.1568C13.2127 10.2494 13.0952 10.3089 13.0229 10.3472C12.589 10.4051 11.553 10.3479 11.0751 10.3519C11.0244 10.3523 10.8719 10.2995 10.8159 10.2792C10.6447 9.88591 10.7279 8.4688 10.7808 7.98864C10.7897 7.90792 10.9151 7.85838 10.9814 7.8299ZM11.386 9.68144C11.7573 9.69142 12.2417 9.71031 12.6097 9.69468C12.606 9.29601 12.6118 8.88475 12.6039 8.48807C12.3566 8.4918 11.615 8.51048 11.3935 8.48331C11.3918 8.85459 11.4029 9.3149 11.386 9.68144Z" fill="black"/>
<path d="M14.3566 7.83082C14.7246 7.80925 15.9659 7.77911 16.2916 7.83314C16.3791 7.84764 16.5205 7.87561 16.5713 7.95834C16.6755 8.12807 16.6823 9.94007 16.6024 10.1619C16.5663 10.262 16.4864 10.3012 16.3974 10.3476C15.9797 10.4065 14.9162 10.3488 14.4506 10.3526C14.4005 10.353 14.2469 10.2996 14.1911 10.2793C14.021 9.88277 14.1042 8.47225 14.1565 7.98972C14.1652 7.90971 14.2906 7.85939 14.3566 7.83082ZM14.7618 9.6824C15.1697 9.6949 15.5778 9.6993 15.9859 9.69565C15.9824 9.30009 15.9888 8.88227 15.9793 8.4892C15.7306 8.49288 14.9912 8.51116 14.7697 8.48411C14.7675 8.85274 14.7792 9.32046 14.7618 9.6824Z" fill="black"/>
<path d="M7.60653 7.82925C7.98212 7.80768 8.36199 7.81809 8.73828 7.81666C8.99419 7.81565 9.26994 7.79278 9.52259 7.82889C9.61158 7.8416 9.76587 7.87089 9.81767 7.95527C9.92815 8.13525 9.92694 9.91059 9.85161 10.1547C9.81997 10.2572 9.73559 10.2994 9.6466 10.3461C9.23394 10.4057 8.16404 10.3461 7.70394 10.3513C7.65087 10.3518 7.49844 10.3004 7.4413 10.28C7.27557 9.91026 7.36316 8.48421 7.38821 8.03175C7.39395 7.92799 7.51751 7.86733 7.60653 7.82925ZM8.00973 9.68062C8.37423 9.69039 8.87337 9.71093 9.23373 9.69393C9.23037 9.29313 9.23429 8.88703 9.22838 8.48728C8.97795 8.491 8.24176 8.50997 8.01692 8.48299C8.01547 8.85389 8.02662 9.31389 8.00973 9.68062Z" fill="black"/>
<path d="M11.1013 11.003C11.5081 10.9949 12.8749 10.9249 13.1653 11.1001C13.1996 11.1489 13.2189 11.1948 13.2326 11.2528C13.2915 11.5026 13.3141 13.2225 13.1971 13.3988C13.1309 13.4986 13.021 13.5163 12.9125 13.5408C12.537 13.5416 11.0875 13.6164 10.8299 13.4392C10.7747 13.3535 10.7538 13.2576 10.7414 13.1573C10.7082 12.8888 10.6805 11.2694 10.817 11.1063C10.8874 11.0223 10.9998 11.012 11.1013 11.003ZM11.3855 12.864C11.7604 12.8721 12.2547 12.8594 12.6113 12.8813C12.6026 12.4831 12.6176 12.0589 12.6037 11.6685C12.2559 11.6694 11.728 11.6878 11.3901 11.6665C11.391 12.0601 11.3971 12.472 11.3855 12.864Z" fill="black"/>
<path d="M14.4766 11.0033C14.8571 10.9928 16.2466 10.9386 16.5086 11.0802C16.5622 11.1091 16.5856 11.1673 16.6012 11.224C16.668 11.466 16.6908 13.2037 16.5791 13.3897C16.5148 13.4968 16.3991 13.5158 16.2869 13.5411C15.9115 13.5419 14.4638 13.6166 14.2053 13.4394C14.1508 13.3533 14.13 13.2577 14.1176 13.1575C14.0843 12.8886 14.0563 11.2722 14.1933 11.1071C14.2632 11.0227 14.375 11.0123 14.4766 11.0033ZM14.7613 12.8645C15.1338 12.8724 15.6341 12.8593 15.9873 12.8814C15.9818 12.4768 15.9796 12.0721 15.9807 11.6675C15.6424 11.671 15.0956 11.6866 14.7658 11.667C14.7668 12.042 14.7782 12.4916 14.7613 12.8645Z" fill="black"/>
<path d="M7.72639 11.0029C8.09881 10.9924 9.51144 10.9401 9.75029 11.077C9.81408 11.1135 9.83349 11.1641 9.85128 11.2333C9.91428 11.4787 9.93528 13.2195 9.8243 13.393C9.75805 13.4966 9.64885 13.5151 9.53738 13.5405C9.15448 13.5418 7.71348 13.6188 7.46581 13.4475C7.40417 13.4048 7.37886 13.2463 7.36885 13.178C7.33128 12.9215 7.30784 11.2727 7.43246 11.1155C7.50558 11.0233 7.61773 11.0123 7.72639 11.0029ZM8.00937 12.8632C8.39279 12.8721 8.86826 12.8602 9.2353 12.881C9.22709 12.4813 9.24094 12.061 9.22824 11.668C8.88837 11.6691 8.3442 11.6881 8.01394 11.666C8.01469 12.0603 8.02093 12.4704 8.00937 12.8632Z" fill="black"/>
<path d="M14.372 14.1895C14.7318 14.1747 16.2625 14.1271 16.4885 14.2499C16.5542 14.2856 16.5793 14.3352 16.5996 14.4054C16.6676 14.6406 16.6854 16.3873 16.5804 16.5708C16.525 16.6675 16.4264 16.6892 16.327 16.7148C15.9496 16.7319 14.5961 16.7733 14.3046 16.6726C14.2344 16.6484 14.1949 16.619 14.1649 16.5503C14.0682 16.3286 14.0588 14.5542 14.1604 14.3361C14.2002 14.2507 14.2907 14.2212 14.372 14.1895ZM14.7609 16.0446C15.1713 16.0617 15.5766 16.0587 15.9871 16.0578C15.9812 15.6535 15.9793 15.2491 15.9815 14.8448C15.8142 14.852 14.9357 14.8631 14.7911 14.8453C14.7373 14.9354 14.7724 15.8607 14.7609 16.0446Z" fill="black"/>
<path d="M7.62283 14.1881C7.98918 14.1735 9.46031 14.1277 9.7232 14.2365C9.78883 14.2637 9.81367 14.3085 9.83721 14.3724C9.91912 14.5944 9.93328 16.3646 9.83367 16.5593C9.78377 16.6568 9.69156 16.6826 9.59479 16.7112C9.23362 16.7353 7.83466 16.7683 7.55423 16.6723C7.48232 16.6477 7.44377 16.618 7.4129 16.5479C7.31634 16.3285 7.30825 14.5478 7.40917 14.3331C7.44876 14.2489 7.54251 14.2191 7.62283 14.1881ZM8.00894 16.0435C8.35242 16.0571 8.88698 16.0709 9.23498 16.0564C9.22914 15.6521 9.22774 15.2477 9.23078 14.8433C9.07288 14.8503 8.17767 14.8619 8.04264 14.8454C7.98276 14.9245 8.01972 15.8662 8.00894 16.0435Z" fill="black"/>
<path d="M10.9973 14.1885C11.3669 14.1785 12.8108 14.1244 13.0736 14.2315C13.1465 14.2612 13.1812 14.2985 13.2115 14.3708C13.3029 14.5891 13.3159 16.3456 13.2106 16.5621C13.1688 16.648 13.0776 16.6792 12.9938 16.7079C12.6503 16.7373 11.1978 16.7615 10.9298 16.6713C10.8602 16.6478 10.8202 16.6193 10.7901 16.5514C10.6921 16.3302 10.6827 14.5527 10.7848 14.3338C10.8244 14.249 10.9165 14.2196 10.9973 14.1885ZM11.385 16.0437C11.7955 16.0608 12.2005 16.0579 12.6111 16.0569C12.605 15.6525 12.6033 15.248 12.6061 14.8436C12.4443 14.8509 11.5603 14.8621 11.4184 14.8453C11.3596 14.9307 11.3963 15.8633 11.385 16.0437Z" fill="black"/>
<path d="M2.61382 8.95982C3.20442 8.93088 4.07808 8.9325 4.66453 8.99043C5.02702 9.02625 4.86443 10.9799 4.83389 11.3054C4.82576 11.3921 4.68291 11.4569 4.614 11.4908C4.30341 11.5255 2.76748 11.54 2.52579 11.4532C2.45841 11.4291 2.42836 11.398 2.40108 11.3332C2.31134 11.1201 2.29383 9.31687 2.39295 9.106C2.43448 9.01762 2.52949 8.99137 2.61382 8.95982ZM3.00453 10.8197C3.39921 10.8244 3.79395 10.8266 4.18868 10.8261C4.24758 10.7341 4.21939 9.80716 4.21753 9.62629C3.96687 9.63086 3.2146 9.65979 3.02035 9.61038C2.9798 9.8677 3.00094 10.5458 3.00453 10.8197Z" fill="black"/>
<path d="M2.59317 12.1438C2.95648 12.1222 4.39535 12.0882 4.67306 12.1781C4.74122 12.2002 4.77924 12.2331 4.80996 12.2972C4.90716 12.4999 4.92204 14.2433 4.83816 14.4703C4.79433 14.5889 4.70974 14.6235 4.60132 14.6721C4.28864 14.6997 2.78037 14.7217 2.52171 14.6344C2.45499 14.6119 2.42867 14.5856 2.40087 14.521C2.31429 14.3198 2.29866 12.4977 2.38936 12.2946C2.42848 12.207 2.51084 12.179 2.59317 12.1438ZM3.00295 14.0006L4.21149 14.0101C4.23085 13.6254 4.2203 13.1949 4.21824 12.8063C3.97878 12.8119 3.20714 12.8378 3.01334 12.7907C2.98847 13.1709 3.00124 13.6142 3.00295 14.0006Z" fill="black"/>
<path d="M2.80608 15.3157C3.17923 15.3149 4.54034 15.2373 4.781 15.4218C4.84775 15.5317 4.86586 15.6621 4.87428 15.7886C4.8935 16.0777 4.92758 17.5801 4.78718 17.7392C4.69782 17.8405 4.57613 17.8528 4.4487 17.8616C4.11132 17.8591 2.62801 17.9123 2.44557 17.779C2.27427 17.5044 2.30765 15.7984 2.42222 15.4237C2.44967 15.3339 2.72731 15.3193 2.80608 15.3157ZM3.00333 17.1836C3.39964 17.1886 3.824 17.1822 4.21697 17.194C4.22065 16.7922 4.22117 16.3905 4.21854 15.9887C3.96807 15.9917 3.21115 16.0129 3.01133 15.976C2.99281 16.3707 3.00122 16.7868 3.00333 17.1836Z" fill="black"/>
<path d="M2.62918 18.503C2.98372 18.4855 4.46741 18.4425 4.70907 18.5576C4.77882 18.5909 4.80702 18.6333 4.83034 18.706C4.90852 18.9498 4.92964 20.6977 4.81836 20.8849C4.76195 20.9798 4.67197 21.0027 4.57288 21.0331C4.24241 21.061 2.76373 21.0874 2.51689 20.9861C2.4527 20.9598 2.42014 20.9406 2.39518 20.8722C2.31673 20.6572 2.30312 18.7972 2.40266 18.6252C2.44573 18.5507 2.55266 18.5245 2.62918 18.503ZM3.00317 20.3665L4.21051 20.374C4.23828 20.0473 4.22131 19.5063 4.21974 19.1675C3.97276 19.169 3.22245 19.1881 3.01644 19.1539C2.98093 19.4419 3.00029 20.0656 3.00317 20.3665Z" fill="black"/>
<path d="M19.2826 15.3148C19.6774 15.3137 21.0174 15.2397 21.2806 15.4198C21.3361 15.5092 21.355 15.6133 21.3665 15.7167C21.3963 15.9843 21.428 17.5639 21.2956 17.7263C21.2134 17.8273 21.1003 17.8472 20.977 17.8595C20.6091 17.8594 19.1776 17.9289 18.9282 17.7557C18.8693 17.6816 18.8594 17.5654 18.8507 17.4743C18.8239 17.1947 18.7868 15.5745 18.9203 15.4233C19.0105 15.3211 19.157 15.3214 19.2826 15.3148ZM19.5008 17.1827C19.8987 17.1872 20.3227 17.1811 20.7165 17.1928C20.7189 16.7912 20.7191 16.3896 20.7171 15.988C20.4683 15.9902 19.7136 16.0101 19.5089 15.9737C19.4923 16.3719 19.4992 16.7832 19.5008 17.1827Z" fill="black"/>
<path d="M19.1512 18.5025C19.488 18.4899 20.9798 18.4359 21.2181 18.564C21.2847 18.5998 21.3098 18.6458 21.331 18.7169C21.4037 18.9609 21.4223 20.6958 21.3158 20.8831C21.2577 20.9853 21.1612 21.0066 21.0564 21.0362C20.7115 21.06 19.232 21.0898 18.9777 20.9687C18.9289 20.9455 18.9098 20.9281 18.8924 20.8744C18.8201 20.6509 18.8025 18.7915 18.9022 18.6257C18.9517 18.5434 19.065 18.5208 19.1512 18.5025ZM19.5009 20.3677L20.7174 20.3773L20.7185 19.169C20.5094 19.17 19.6699 19.1865 19.5136 19.1509C19.4813 19.4701 19.4987 20.0372 19.5009 20.3677Z" fill="black"/>
</svg>
